<svg width="1054" height="610" viewBox="0 0 1054 610" fill="none" xmlns="http://www.w3.org/2000/svg">
<g clip-path="url(#clip0_2_15)">
<path d="M305 610C473.447 610 610 473.447 610 305C610 136.553 473.447 2.0695e-05 305 1.3332e-05C136.553 5.96893e-06 -5.96893e-06 136.553 -1.3332e-05 305C-2.0695e-05 473.447 136.553 610 305 610ZM305 18.3C463.34 18.3 591.7 146.66 591.7 305C591.7 463.34 463.34 591.7 305 591.7C146.66 591.7 18.3 463.34 18.3 305C18.3 146.66 146.66 18.3 305 18.3Z" fill="url(#paint0_linear_2_15)"/>
<path d="M355 587C511.297 587 638 460.297 638 304C638 147.703 511.297 21 355 21C198.703 21 72 147.703 72 304C72 460.297 198.703 587 355 587ZM355 37.98C501.919 37.98 621.02 157.081 621.02 304C621.02 450.919 501.919 570.02 355 570.02C208.081 570.02 88.98 450.919 88.98 304C88.98 157.081 208.081 37.98 355 37.98Z" fill="url(#paint1_linear_2_15)"/>
</g>
<path d="M1053.84 191.64V197.16H1016.28V229.8H1052.88V235.2H1016.28V276.72H1053.84V282.12H1010.52V191.64H1053.84Z" fill="white"/>
<path d="M883.058 191.64H889.538L916.178 267.96L942.098 191.64H948.458L916.178 285.72L883.058 191.64Z" fill="white"/>
<path d="M815.264 191.64H821.024V282.12H815.264V191.64Z" fill="white"/>
<path d="M753.254 197.16H729.734V282.12H723.854V197.16H700.574V191.64H753.254V197.16Z" fill="white"/>
<path d="M648.569 282.12L636.569 252.36H598.049L586.049 282.12H579.449L617.489 189L655.169 282.12H648.569ZM600.209 246.96H634.409L617.489 204.12L600.209 246.96Z" fill="white"/>
<path d="M522.396 191.64V197.16H484.836V229.8H521.436V235.2H484.836V276.72H522.396V282.12H479.076V191.64H522.396Z" fill="white"/>
<path d="M367.678 191.64H380.398C400.318 191.64 408.718 200.88 408.718 215.64C408.718 229.08 401.878 238.44 382.918 239.4L412.438 282.12H405.358L376.198 239.4H373.438V282.12H367.678V191.64ZM373.438 197.16V234H382.198C395.758 234 402.718 228 402.718 215.52C402.718 203.16 395.038 197.16 380.878 197.16H373.438Z" fill="white"/>
<path d="M300.28 202.08V210.24C291.76 200.64 281.56 195.84 269.68 195.84C248.08 195.84 229 215.16 229 237.36C229 259.68 248.8 278.16 269.8 278.16C281.8 278.16 292 273.36 300.28 264.48V272.4C290.68 279.84 280.6 283.56 270.16 283.56C244.6 283.56 223 261.84 223 237.12C223 211.44 245.08 190.32 269.92 190.32C280.96 190.32 291.04 194.28 300.28 202.08Z" fill="white"/>
<path d="M898.936 337.04H911.656C931.576 337.04 939.976 346.28 939.976 361.04C939.976 374.48 933.136 383.84 914.176 384.8L943.696 427.52H936.616L907.456 384.8H904.696V427.52H898.936V337.04ZM904.696 342.56V379.4H913.456C927.016 379.4 933.976 373.4 933.976 360.92C933.976 348.56 926.296 342.56 912.136 342.56H904.696Z" fill="#777777"/>
<path d="M831.443 337.04V342.56H793.883V375.2H830.483V380.6H793.883V422.12H831.443V427.52H788.123V337.04H831.443Z" fill="#777777"/>
<path d="M709.791 337.04H715.671V429.8L639.711 350.24V427.52H633.951V336.08L709.791 415.64V337.04Z" fill="#777777"/>
<path d="M522.553 337.04H535.273C555.193 337.04 563.593 346.28 563.593 361.04C563.593 374.48 556.753 383.84 537.793 384.8L567.313 427.52H560.233L531.073 384.8H528.313V427.52H522.553V337.04ZM528.313 342.56V379.4H537.073C550.633 379.4 557.593 373.4 557.593 360.92C557.593 348.56 549.913 342.56 535.753 342.56H528.313Z" fill="#777777"/>
<path d="M361.352 381.68C361.352 357.2 383.312 335.72 408.152 335.72C433.592 335.72 455.072 357.08 455.072 382.4C455.072 408.08 433.352 428.96 407.912 428.96C383.192 428.96 361.352 408.2 361.352 381.68ZM367.352 381.8C367.352 404.96 386.312 423.56 407.912 423.56C430.232 423.56 449.072 404.96 449.072 382.4C449.072 359.84 430.112 341.24 408.152 341.24C386.552 341.24 367.352 360.08 367.352 381.8Z" fill="#777777"/>
<path d="M300.28 347.48V355.64C291.76 346.04 281.56 341.24 269.68 341.24C248.08 341.24 229 360.56 229 382.76C229 405.08 248.8 423.56 269.8 423.56C281.8 423.56 292 418.76 300.28 409.88V417.8C290.68 425.24 280.6 428.96 270.16 428.96C244.6 428.96 223 407.24 223 382.52C223 356.84 245.08 335.72 269.92 335.72C280.96 335.72 291.04 339.68 300.28 347.48Z" fill="#777777"/>
<defs>
<linearGradient id="paint0_linear_2_15" x1="-1.3332e-05" y1="305" x2="610" y2="305" gradientUnits="userSpaceOnUse">
<stop stop-color="white"/>
<stop offset="0.7" stop-color="#151515"/>
<stop offset="1" stop-color="#141414"/>
</linearGradient>
<linearGradient id="paint1_linear_2_15" x1="72" y1="304" x2="638" y2="304" gradientUnits="userSpaceOnUse">
<stop stop-color="white"/>
<stop offset="0.7" stop-color="#151515"/>
<stop offset="1" stop-color="#171717"/>
</linearGradient>
<clipPath id="clip0_2_15">
<rect width="441" height="610" fill="white"/>
</clipPath>
</defs>
</svg>
